<mxfile host="65bd71144e">
    <diagram id="eWBZczEK-0XSzhH1aRuM" name="Page-1">
        <mxGraphModel dx="371" dy="342" grid="1" gridSize="10" guides="1" tooltips="1" connect="1" arrows="1" fold="1" page="1" pageScale="1" pageWidth="850" pageHeight="1100" math="0" shadow="0">
            <root>
                <mxCell id="0"/>
                <mxCell id="1" parent="0"/>
                <mxCell id="6" style="edgeStyle=elbowEdgeStyle;rounded=0;orthogonalLoop=1;jettySize=auto;html=1;elbow=vertical;startArrow=open;startFill=0;entryX=0;entryY=0.5;entryDx=0;entryDy=0;" parent="1" source="2" target="7" edge="1">
                    <mxGeometry relative="1" as="geometry">
                        <mxPoint x="280" y="100" as="targetPoint"/>
                    </mxGeometry>
                </mxCell>
                <mxCell id="11" value="&lt;font style=&quot;font-size: 13px&quot;&gt;GET /api/echo/&lt;/font&gt;" style="edgeLabel;html=1;align=center;verticalAlign=middle;resizable=0;points=[];" parent="6" vertex="1" connectable="0">
                    <mxGeometry x="0.301" y="-2" relative="1" as="geometry">
                        <mxPoint x="-27" y="-2" as="offset"/>
                    </mxGeometry>
                </mxCell>
                <mxCell id="2" value="" style="points=[[0.03,0.03,0],[0.5,0,0],[0.97,0.03,0],[1,0.4,0],[0.97,0.745,0],[0.5,1,0],[0.03,0.745,0],[0,0.4,0]];verticalLabelPosition=bottom;html=1;verticalAlign=top;aspect=fixed;align=center;pointerEvents=1;shape=mxgraph.cisco19.workstation;fillColor=#005073;strokeColor=none;" parent="1" vertex="1">
                    <mxGeometry x="40" y="80" width="50" height="40" as="geometry"/>
                </mxCell>
                <mxCell id="4" value="Proxy Server" style="text;html=1;align=center;verticalAlign=middle;resizable=0;points=[];autosize=1;strokeColor=none;" parent="1" vertex="1">
                    <mxGeometry x="260" y="50" width="80" height="20" as="geometry"/>
                </mxCell>
                <mxCell id="9" style="rounded=0;orthogonalLoop=1;jettySize=auto;html=1;startArrow=open;startFill=0;" parent="1" source="7" target="8" edge="1">
                    <mxGeometry relative="1" as="geometry"/>
                </mxCell>
                <mxCell id="7" value="" style="aspect=fixed;perimeter=ellipsePerimeter;html=1;align=center;shadow=0;dashed=0;spacingTop=3;image;image=img/lib/active_directory/generic_server.svg;" parent="1" vertex="1">
                    <mxGeometry x="286" y="75" width="28.000000000000004" height="50" as="geometry"/>
                </mxCell>
                <mxCell id="8" value="" style="aspect=fixed;perimeter=ellipsePerimeter;html=1;align=center;shadow=0;dashed=0;spacingTop=3;image;image=img/lib/active_directory/generic_server.svg;" parent="1" vertex="1">
                    <mxGeometry x="460" y="75" width="28.000000000000004" height="50" as="geometry"/>
                </mxCell>
                <mxCell id="10" value="API" style="text;html=1;align=center;verticalAlign=middle;resizable=0;points=[];autosize=1;strokeColor=none;" parent="1" vertex="1">
                    <mxGeometry x="460" y="50" width="30" height="20" as="geometry"/>
                </mxCell>
                <mxCell id="12" value="&lt;font style=&quot;font-size: 14px&quot;&gt;{&lt;br&gt;&quot;msg&quot;: &quot;hello world&quot;&lt;br&gt;}&lt;/font&gt;" style="text;html=1;align=left;verticalAlign=middle;resizable=0;points=[];autosize=1;strokeColor=none;" parent="1" vertex="1">
                    <mxGeometry x="414" y="130" width="140" height="50" as="geometry"/>
                </mxCell>
            </root>
        </mxGraphModel>
    </diagram>
</mxfile>